<?xml version="1.0" standalone="no"?>
<!DOCTYPE svg PUBLIC "-//W3C//DTD SVG 20010904//EN"
 "http://www.w3.org/TR/2001/REC-SVG-20010904/DTD/svg10.dtd">
<svg version="1.0" xmlns="http://www.w3.org/2000/svg"
 width="280.000000pt" height="280.000000pt" viewBox="0 0 280.000000 280.000000"
 preserveAspectRatio="xMidYMid meet">
<metadata>
Created by potrace 1.14, written by Peter Selinger 2001-2017
</metadata>
<g transform="translate(0.000000,280.000000) scale(0.100000,-0.100000)"
fill="#000000" stroke="none">
<path d="M1445 2606 c-143 -38 -224 -87 -345 -208 -39 -40 -54 -48 -84 -48
-80 0 -257 -53 -342 -101 -288 -167 -462 -445 -481 -770 -15 -263 67 -484 241
-651 146 -139 325 -208 539 -208 51 1 124 7 162 14 l70 14 80 -77 c187 -179
409 -347 540 -408 50 -23 73 -28 140 -28 68 0 88 5 135 28 65 34 139 88 140
102 0 6 -39 20 -87 33 -176 47 -381 140 -538 245 -102 68 -215 155 -215 166 0
4 26 19 58 35 206 101 440 301 561 481 154 228 214 413 213 665 0 155 -20 247
-77 369 -78 164 -199 274 -364 333 -72 26 -272 34 -346 14z m136 -236 c237
-45 387 -292 366 -604 -11 -167 -49 -301 -128 -459 -115 -227 -313 -415 -502
-477 -47 -15 -54 -9 -134 98 -67 91 -114 175 -149 270 -14 39 -30 72 -34 72
-13 0 -78 -82 -89 -113 -6 -16 -11 -50 -11 -76 0 -56 39 -128 119 -219 l50
-57 -29 -3 c-42 -5 -206 53 -270 95 -132 87 -242 250 -275 408 -19 93 -19 296
0 390 49 236 195 412 402 486 35 13 65 20 69 17 3 -4 0 -32 -6 -63 -24 -118
14 -187 116 -209 l31 -7 5 84 c12 179 131 319 310 362 67 17 92 17 159 5z"/>
</g>
</svg>
